<svg xmlns="http://www.w3.org/2000/svg" viewBox="0 0 210.31 195.1"><defs><style>.cls-1{fill:#433e3e;}.cls-2{isolation:isolate;}.cls-3{fill:#f7b61d;}.cls-4{fill:#3d9f51;}.cls-5{fill:#8ad1ec;}.cls-6{fill:#db006d;}.cls-7{fill:#db001b;}.cls-8{fill:#812d7e;}.cls-9{fill:#289cd3;}.cls-10{fill:#a1bc09;}.cls-11{fill:#0e2f74;}.cls-12{fill:#f39600;}</style></defs><title>signals-logo-large</title><g id="Layer_2" data-name="Layer 2"><g id="v1"><path class="cls-1" d="M14.81,110c5.3,0,12.8,2.8,12.8,6.8a2.58,2.58,0,0,1-2.6,2.6h-.3c-2.8,0-3.8-3.9-9.9-3.9-3.6,0-6.8,1.6-6.8,4.9,0,6.8,20.6,6,20.6,17.2,0,8.1-6.9,11.9-14.1,11.9-8.1,0-14.5-4.1-14.5-7.3a2.7,2.7,0,0,1,2.5-2.9h.1c2.8,0,5.1,4.7,12.1,4.7,4.7,0,7.5-2.6,7.5-5.2,0-7.6-20.6-7.1-20.6-17.9C1.71,113.8,8.41,110,14.81,110Z"/><path class="cls-1" d="M41.21,146.1a3.21,3.21,0,0,1-6.4.4V113.4a3.21,3.21,0,1,1,6.4-.4v33.1Z"/><path class="cls-1" d="M81.31,146.3c0,11.5-7,18.4-17.4,18.4-6.6,0-14.8-3.8-14.8-7a2.7,2.7,0,0,1,2.4-3h.3c2.9,0,5.7,4.5,12.6,4.5,8.1,0,10.5-6.4,10.5-11.9V144h-.1a11,11,0,0,1-9.8,5.5c-10.9,0-17-9.5-17-19.8s6.1-19.8,17-19.8a13,13,0,0,1,9.8,4.9h.1v-1.7c0-2.2,1.7-3.1,3.4-3.1a3,3,0,0,1,3,3v33.3ZM64.91,144c7.8,0,10.6-7.7,10.6-14.2s-2.8-14.2-10.6-14.2-10.6,7.7-10.6,14.2,2.8,14.2,10.6,14.2Z"/><path class="cls-1" d="M90,113.4a3.21,3.21,0,0,1,6.4-.4v1.9l.1.1a13.17,13.17,0,0,1,10.7-5.1c6,0,13.4,3.8,13.4,14.7V146a3.21,3.21,0,0,1-6.4.4V125c0-6.8-4.7-9.5-8.9-9.5s-8.9,2.8-8.9,9.5v21.1a3.21,3.21,0,0,1-6.4.4V113.4Z"/><path class="cls-1" d="M161,146.4a2.89,2.89,0,0,1-2.9,3.1H158a2.91,2.91,0,0,1-3-2.8v-3h-.1c-2.8,3.9-6.4,5.8-10.5,5.8-10.9,0-17-9.5-17-19.8s6.1-19.8,17-19.8c4.4,0,7.6,1.9,10.5,5.1h.1v-2a2.91,2.91,0,0,1,2.7-3.1h.3a3,3,0,0,1,3,3v33.5Zm-16.7-2.4c7.8,0,10.6-7.7,10.6-14.2s-2.8-14.2-10.6-14.2-10.6,7.7-10.6,14.2,2.8,14.2,10.6,14.2Z"/><path class="cls-1" d="M175.81,146.1a3.21,3.21,0,0,1-6.4.4V96.4a3.21,3.21,0,1,1,6.4-.4v50.1Z"/><path class="cls-1" d="M196.51,110c5.3,0,12.9,2.8,12.9,6.8a2.58,2.58,0,0,1-2.6,2.6h-.3c-2.8,0-3.9-3.9-10-3.9-3.6,0-6.8,1.6-6.8,4.9,0,6.8,20.6,6,20.6,17.2,0,8.1-6.9,11.9-14.1,11.9-8.1,0-14.5-4.1-14.5-7.3a2.7,2.7,0,0,1,2.5-2.9h.1c2.8,0,5.1,4.7,12.1,4.7,4.7,0,7.5-2.6,7.5-5.2,0-7.6-20.6-7.1-20.6-17.9C183.31,113.8,190,110,196.51,110Z"/><g class="cls-2"><path class="cls-1" d="M5.31,180.8c1.7,0,2.7.6,2.7,1.3a.75.75,0,0,1-.7.7c-.6,0-.9-.5-2-.5-2.1,0-2.9,2-2.9,3.7s.8,3.7,2.9,3.7c1.2,0,1.5-.6,2-.6s.6.2.6.7-.9,1.3-2.6,1.3c-3.1,0-4.5-2.5-4.5-5.1S2.21,180.8,5.31,180.8Z"/><path class="cls-1" d="M9.61,181.7a.82.82,0,0,1,.8-.9c.5,0,.8.3.8.9v.8h0a2.91,2.91,0,0,1,2.3-1.7.82.82,0,0,1,.9.8c0,.4-.3.8-1,.9a2.61,2.61,0,0,0-2.2,2.8v4.8a.82.82,0,0,1-.8.9c-.5,0-.8-.3-.8-.9Z"/><path class="cls-1" d="M16.51,186.6a2.91,2.91,0,0,0,3,3.1c2.2,0,2.8-1.4,3.4-1.4a.67.67,0,0,1,.6.7c0,.8-2.1,2.1-4,2.1-3.2,0-4.6-2.5-4.6-5.1s1.7-5.1,4.5-5.1,4.3,2.5,4.3,4.9c0,.6-.2.9-.9.9h-6.3Zm5.5-1.2a2.83,2.83,0,0,0-2.7-3.1c-2.1-.1-2.8,1.6-2.8,3.1Z"/><path class="cls-1" d="M33.61,190.3a.8.8,0,1,1-1.6,0v-.7h0a3.3,3.3,0,0,1-2.7,1.5c-2.8,0-4.4-2.5-4.4-5.1s1.6-5.1,4.4-5.1a3.51,3.51,0,0,1,2.7,1.3h0v-.5a.73.73,0,0,1,.8-.8.78.78,0,0,1,.8.8Zm-4.3-.6c2,0,2.8-2,2.8-3.7s-.7-3.7-2.8-3.7-2.8,2-2.8,3.7S27.21,189.7,29.31,189.7Z"/><path class="cls-1" d="M36.31,178.8a.82.82,0,0,1,.8-.9c.5,0,.8.3.8.9V181h.7a.71.71,0,0,1,.8.7c0,.5-.3.7-.8.7h-.7v7.8a.82.82,0,0,1-.8.9c-.5,0-.8-.3-.8-.9v-7.8h-.7a.71.71,0,0,1-.8-.7c0-.5.3-.7.8-.7h.7Z"/><path class="cls-1" d="M41.51,177.4a1,1,0,1,1-1,1A1,1,0,0,1,41.51,177.4Zm.8,12.8a.82.82,0,0,1-.8.9c-.5,0-.8-.3-.8-.9v-8.5a.82.82,0,0,1,.8-.9c.5,0,.8.3.8.9Z"/><path class="cls-1" d="M43.71,182.3a2.54,2.54,0,0,1-.2-.7.79.79,0,0,1,.8-.8,1,1,0,0,1,.9.6l2.3,6.9h0l2.3-6.9c.1-.4.3-.6.9-.6a.79.79,0,0,1,.8.8,2.54,2.54,0,0,1-.2.7l-2.9,8.1c-.2.5-.3.7-.9.7s-.7-.2-.9-.7Z"/><path class="cls-1" d="M53.61,186.6a2.91,2.91,0,0,0,3,3.1c2.2,0,2.8-1.4,3.4-1.4a.67.67,0,0,1,.6.7c0,.8-2.1,2.1-4,2.1-3.2,0-4.6-2.5-4.6-5.1s1.7-5.1,4.5-5.1,4.3,2.5,4.3,4.9c0,.6-.2.9-.9.9h-6.3Zm5.5-1.2a2.83,2.83,0,0,0-2.7-3.1c-2.1-.1-2.8,1.6-2.8,3.1Z"/><path class="cls-1" d="M70.71,180.9a3.4,3.4,0,1,1-3.4,3.4A3.37,3.37,0,0,1,70.71,180.9Z"/><path class="cls-1" d="M87.71,189.7h0a2.85,2.85,0,0,1-2.7,1.4c-2.7,0-4.3-2.5-4.3-5.1s1.6-5.1,4.3-5.1a3.28,3.28,0,0,1,2.7,1.4h0v-4.9a.82.82,0,0,1,.8-.9c.5,0,.8.3.8.9v12.9a.82.82,0,0,1-.8.9c-.5,0-.8-.3-.8-.9Zm-2.6-7.4c-2,0-2.8,2-2.8,3.7s.7,3.7,2.8,3.7,2.8-2,2.8-3.7S87.21,182.3,85.11,182.3Z"/><path class="cls-1" d="M92.51,177.4a1,1,0,1,1-1,1A1,1,0,0,1,92.51,177.4Zm.8,12.8a.82.82,0,0,1-.8.9c-.5,0-.8-.3-.8-.9v-8.5a.82.82,0,0,1,.8-.9c.5,0,.8.3.8.9Z"/><path class="cls-1" d="M103.71,190.3c0,3-1.8,4.8-4.5,4.8-1.7,0-3.8-1-3.8-1.8a.76.76,0,0,1,.7-.8c.8,0,1.5,1.2,3.3,1.2,2.1,0,2.7-1.7,2.7-3.1v-.9h0a2.74,2.74,0,0,1-2.5,1.4c-2.8,0-4.4-2.5-4.4-5.1s1.6-5.1,4.4-5.1a3.23,3.23,0,0,1,2.5,1.3h0v-.5c0-.6.4-.8.9-.8a.78.78,0,0,1,.8.8v8.6Zm-4.2-.6c2,0,2.8-2,2.8-3.7s-.7-3.7-2.8-3.7-2.8,2-2.8,3.7S97.41,189.7,99.51,189.7Z"/><path class="cls-1" d="M106.81,177.4a1,1,0,1,1-1,1A1,1,0,0,1,106.81,177.4Zm.8,12.8a.82.82,0,0,1-.8.9c-.5,0-.8-.3-.8-.9v-8.5a.82.82,0,0,1,.8-.9c.5,0,.8.3.8.9Z"/><path class="cls-1" d="M110.31,178.8a.82.82,0,0,1,.8-.9c.5,0,.8.3.8.9V181h.7a.71.71,0,0,1,.8.7c0,.5-.3.7-.8.7h-.7v7.8a.82.82,0,0,1-.8.9c-.5,0-.8-.3-.8-.9v-7.8h-.7a.71.71,0,0,1-.8-.7c0-.5.3-.7.8-.7h.7Z"/><path class="cls-1" d="M123,190.3a.8.8,0,0,1-1.6,0v-.7h0a3.3,3.3,0,0,1-2.7,1.5c-2.8,0-4.4-2.5-4.4-5.1s1.6-5.1,4.4-5.1a3.37,3.37,0,0,1,2.7,1.3h0v-.5a.73.73,0,0,1,.8-.8.78.78,0,0,1,.8.8Zm-4.3-.6c2,0,2.8-2,2.8-3.7s-.7-3.7-2.8-3.7-2.8,2-2.8,3.7S116.61,189.7,118.71,189.7Z"/><path class="cls-1" d="M126.81,190.2a.82.82,0,0,1-.8.9c-.5,0-.8-.3-.8-.9V177.3a.82.82,0,0,1,.8-.9c.5,0,.8.3.8.9Z"/><path class="cls-1" d="M137.31,180.9a3.4,3.4,0,1,1-3.4,3.4A3.5,3.5,0,0,1,137.31,180.9Z"/><path class="cls-1" d="M149.51,190.2a.82.82,0,0,1-.8.9c-.5,0-.8-.3-.8-.9V177.3a.82.82,0,0,1,.8-.9c.5,0,.8.3.8.9Z"/><path class="cls-1" d="M152.81,186.6a2.91,2.91,0,0,0,3,3.1c2.2,0,2.8-1.4,3.4-1.4a.67.67,0,0,1,.6.7c0,.8-2.1,2.1-4,2.1-3.2,0-4.6-2.5-4.6-5.1s1.7-5.1,4.5-5.1,4.3,2.5,4.3,4.9c0,.6-.2.9-.9.9h-6.3Zm5.5-1.2a2.83,2.83,0,0,0-2.7-3.1c-2.1-.1-2.8,1.6-2.8,3.1Z"/><path class="cls-1" d="M169.81,190.3a.8.8,0,0,1-1.6,0v-.7h0a3.3,3.3,0,0,1-2.7,1.5c-2.8,0-4.4-2.5-4.4-5.1s1.6-5.1,4.4-5.1a3.51,3.51,0,0,1,2.7,1.3h0v-.5a.73.73,0,0,1,.8-.8.78.78,0,0,1,.8.8Zm-4.3-.6c2,0,2.8-2,2.8-3.7s-.7-3.7-2.8-3.7-2.8,2-2.8,3.7S163.41,189.7,165.51,189.7Z"/><path class="cls-1" d="M172,181.7a.82.82,0,0,1,.8-.9c.5,0,.8.3.8.9v.8h0a2.91,2.91,0,0,1,2.3-1.7.82.82,0,0,1,.9.8c0,.4-.3.8-1,.9a2.61,2.61,0,0,0-2.2,2.8v4.8a.82.82,0,0,1-.8.9c-.5,0-.8-.3-.8-.9Z"/><path class="cls-1" d="M177.91,181.7a.82.82,0,0,1,.8-.9c.5,0,.8.3.8.9v.4h0a3.54,3.54,0,0,1,2.8-1.3,3.48,3.48,0,0,1,3.5,3.8v5.6a.82.82,0,0,1-.8.9c-.5,0-.8-.3-.8-.9v-5.5a2.31,2.31,0,1,0-4.6,0v5.5a.82.82,0,0,1-.8.9c-.5,0-.8-.3-.8-.9v-8.5Z"/><path class="cls-1" d="M188.91,177.4a1,1,0,1,1-1,1A1,1,0,0,1,188.91,177.4Zm.8,12.8a.82.82,0,0,1-.8.9c-.5,0-.8-.3-.8-.9v-8.5a.82.82,0,0,1,.8-.9c.5,0,.8.3.8.9Z"/><path class="cls-1" d="M191.91,181.7a.82.82,0,0,1,.8-.9c.5,0,.8.3.8.9v.4h0a3.54,3.54,0,0,1,2.8-1.3,3.48,3.48,0,0,1,3.5,3.8v5.6a.82.82,0,0,1-.8.9c-.5,0-.8-.3-.8-.9v-5.5a2.31,2.31,0,1,0-4.6,0v5.5a.82.82,0,0,1-.8.9c-.5,0-.8-.3-.8-.9v-8.5Z"/><path class="cls-1" d="M210.21,190.3c0,3-1.8,4.8-4.5,4.8-1.7,0-3.8-1-3.8-1.8a.76.76,0,0,1,.7-.8c.8,0,1.5,1.2,3.3,1.2,2.1,0,2.7-1.7,2.7-3.1v-.9h0a2.74,2.74,0,0,1-2.5,1.4c-2.8,0-4.4-2.5-4.4-5.1s1.6-5.1,4.4-5.1a3.23,3.23,0,0,1,2.5,1.3h0v-.5c0-.6.4-.8.9-.8a.78.78,0,0,1,.8.8v8.6Zm-4.2-.6c2,0,2.8-2,2.8-3.7s-.7-3.7-2.8-3.7-2.8,2-2.8,3.7S204,189.7,206,189.7Z"/></g><g id="Bubbles"><path class="cls-3" d="M12,41.6a4.5,4.5,0,1,1-4.5-4.5A4.48,4.48,0,0,1,12,41.6"/><path class="cls-4" d="M34.41,61.9a4.5,4.5,0,1,1-4.5-4.5,4.48,4.48,0,0,1,4.5,4.5"/><path class="cls-5" d="M42.51,91.1A4.5,4.5,0,1,1,38,86.6a4.48,4.48,0,0,1,4.5,4.5"/><path class="cls-6" d="M54.71,75.5a4.5,4.5,0,1,1-4.5-4.5,4.48,4.48,0,0,1,4.5,4.5"/><path class="cls-7" d="M74.21,47.2a9.1,9.1,0,1,1-9.1-9.1,9,9,0,0,1,9.1,9.1h0"/><path class="cls-8" d="M90.91,63.1a9.1,9.1,0,1,1-9.1-9.1h0a9.13,9.13,0,0,1,9.1,9.1"/><path class="cls-9" d="M119.31,42.6a14.2,14.2,0,1,1-14.2-14.2,14.25,14.25,0,0,1,14.2,14.2"/><path class="cls-10" d="M147.81,14.2A14.2,14.2,0,1,1,133.61,0a14.19,14.19,0,0,1,14.2,14.2"/><path class="cls-11" d="M45.71,27.7a9.1,9.1,0,1,1-9.1-9.1,9.13,9.13,0,0,1,9.1,9.1h0"/><path class="cls-12" d="M111,80.2a4.5,4.5,0,1,1-4.5-4.5,4.48,4.48,0,0,1,4.5,4.5"/></g></g></g></svg>